<svg width="246" height="48" viewBox="0 0 246 48" fill="none" xmlns="http://www.w3.org/2000/svg">
<circle cx="20.2621" cy="7.28036" r="6.754" fill="black"/>
<path fill-rule="evenodd" clip-rule="evenodd" d="M16.8549 16.9316C12.5465 17.1419 9.03578 17.8765 6.32268 19.1355C3.12941 20.6091 1.53277 22.6116 1.53277 25.1432C1.53277 29.4715 6.06535 32.2675 15.1305 33.5311L15.5933 29.0756C13.8244 28.7467 12.4585 28.3805 11.4958 27.9771C9.96301 27.3347 9.19663 26.3712 9.19663 25.0865C9.19663 23.7263 10.0907 22.6683 11.879 21.9126C13.0636 21.412 14.5845 21.0772 16.4418 20.9083L16.8549 16.9316ZM23.9575 20.9829L23.5328 16.9797C33.9995 17.5981 39.3754 20.7915 39.6605 26.5601H31.9966C31.805 24.4442 30.7193 22.9517 28.7395 22.0827C27.5424 21.5572 25.9484 21.1906 23.9575 20.9829ZM24.9463 30.3032L25.4231 34.7969C27.661 35.1648 29.3094 35.5742 30.368 36.0252C32.0285 36.7053 32.8588 37.7066 32.8588 39.0291C32.8588 42.0518 28.8991 43.5632 20.9798 43.5632C16.637 43.5632 13.4437 43.1098 11.4 42.203C9.42016 41.2583 8.20671 39.6903 7.75965 37.4988H0C0.766385 44.1489 7.75965 47.4739 20.9798 47.4739C27.1109 47.4739 31.9008 46.7182 35.3495 45.2068C38.8621 43.6577 40.6184 41.5039 40.6184 38.7457C40.6184 36.3652 39.2773 34.5138 36.5949 33.1913C34.1794 31.9714 30.2966 31.0087 24.9463 30.3032Z" fill="black"/>
<path d="M22.8486 16.9629H17.5435L15.7751 36.9281L20.2148 41.145L24.6545 36.9281L22.8486 16.9629Z" fill="#20BF55"/>
<path d="M61.4144 45.997C57.8391 45.997 55.0483 45.1867 53.0419 43.5662C51.0356 41.9458 50.0196 39.5279 49.9939 36.3127H53.3506C53.4278 40.814 56.1157 43.0647 61.4144 43.0647C63.6522 43.0647 65.3627 42.6274 66.5459 41.7529C67.7549 40.8783 68.3593 39.6051 68.3593 37.9332C68.3593 36.6213 67.8577 35.6053 66.8546 34.8851C65.8772 34.1392 64.1538 33.4961 61.6845 32.956L59.2538 32.4158C56.4758 31.7728 54.3923 30.8468 53.0034 29.6379C51.6144 28.4032 50.9199 26.6798 50.9199 24.4678C50.9199 22.2814 51.7687 20.5452 53.4664 19.2591C55.164 17.9473 57.4404 17.2914 60.2955 17.2914C62.2247 17.2914 63.8966 17.5229 65.3113 17.9859C66.7517 18.4489 67.8706 19.1048 68.668 19.9536C69.4654 20.7767 70.0441 21.6769 70.4042 22.6544C70.79 23.6318 70.9958 24.7121 71.0215 25.8953H67.7034C67.5491 23.9405 66.906 22.5129 65.7743 21.6126C64.6682 20.6867 62.842 20.2237 60.2955 20.2237C58.3664 20.2237 56.8745 20.5966 55.8199 21.3426C54.791 22.0885 54.2766 23.1302 54.2766 24.4678C54.2766 25.8053 54.7267 26.847 55.627 27.593C56.5015 28.3389 58.1992 28.9948 60.7199 29.5607L63.1506 30.1009C66.1858 30.7696 68.3722 31.7342 69.7097 32.9946C71.0472 34.2292 71.716 35.8754 71.716 37.9332C71.716 40.4282 70.8029 42.3959 68.9766 43.8363C67.1504 45.2768 64.6296 45.997 61.4144 45.997ZM83.3448 25.4709V28.1717H79.255V41.0969C79.255 42.2287 80.0138 42.7946 81.5314 42.7946H83.3448V45.3796C82.496 45.4568 81.7629 45.4954 81.1456 45.4954C77.8275 45.4954 76.1684 44.1193 76.1684 41.367V28.1717H72.8889V25.4709H76.1684V19.8378H79.255V25.4709H83.3448ZM102.7 42.8718H103.819V45.3796C103.305 45.4568 102.739 45.4954 102.122 45.4954C100.038 45.4954 98.9193 44.5437 98.765 42.6403C97.376 44.7752 95.2153 45.8426 92.2831 45.8426C90.0967 45.8426 88.3733 45.3411 87.113 44.3379C85.8783 43.309 85.261 41.8686 85.261 40.0166C85.261 36.4156 87.7174 34.3578 92.6303 33.8434L95.4854 33.5347C97.5689 33.3032 98.6106 32.3901 98.6106 30.7953C98.6106 29.6893 98.2634 28.8919 97.5689 28.4032C96.9001 27.9145 95.7555 27.6701 94.135 27.6701C92.4117 27.6701 91.1641 27.9659 90.3925 28.5575C89.6466 29.1234 89.2221 30.1394 89.1193 31.6056H86.0326C86.2899 27.2071 88.9907 25.0079 94.135 25.0079C99.1251 25.0079 101.62 26.9371 101.62 30.7953V41.9072C101.62 42.5502 101.98 42.8718 102.7 42.8718ZM92.4374 43.219C94.0836 43.219 95.524 42.7174 96.7587 41.7143C97.9933 40.7368 98.6106 39.335 98.6106 37.5088V35.1552C98.0447 35.5925 97.1702 35.8754 95.987 36.004L93.0933 36.3513C91.4214 36.557 90.2253 36.9429 89.5051 37.5088C88.8106 38.0746 88.4634 38.8849 88.4634 39.9395C88.4634 40.9683 88.7977 41.7786 89.4665 42.3702C90.1353 42.9361 91.1256 43.219 92.4374 43.219ZM114.852 20.5323H113.077C111.303 20.5323 110.415 21.4712 110.415 23.3489V25.4709H114.659V28.1717H110.415V45.3796H107.329V28.1717H104.049V25.4709H107.329V23.426C107.329 19.6964 109.181 17.8315 112.884 17.8315C113.373 17.8315 114.029 17.8573 114.852 17.9087V20.5323ZM127.211 20.5323H125.436C123.661 20.5323 122.774 21.4712 122.774 23.3489V25.4709H127.018V28.1717H122.774V45.3796H119.687V28.1717H116.408V25.4709H119.687V23.426C119.687 19.6964 121.539 17.8315 125.243 17.8315C125.732 17.8315 126.388 17.8573 127.211 17.9087V20.5323ZM155.019 33.0717L161.154 17.9087H165.398V45.3796H162.234V36.5828C162.234 30.7953 162.273 26.1268 162.35 22.5772C161.732 24.2749 160.922 26.3583 159.919 28.8276L153.128 45.3796H150.35L143.521 28.8276C142.518 26.3583 141.708 24.2749 141.091 22.5772C141.168 26.1268 141.206 30.7953 141.206 36.5828V45.3796H138.043V17.9087H142.287L148.653 33.5347C149.605 35.8754 150.646 38.5119 151.778 41.4442C153.347 37.2773 154.427 34.4864 155.019 33.0717ZM186.309 42.8718H187.428V45.3796C186.913 45.4568 186.348 45.4954 185.73 45.4954C183.647 45.4954 182.528 44.5437 182.374 42.6403C180.985 44.7752 178.824 45.8426 175.892 45.8426C173.705 45.8426 171.982 45.3411 170.722 44.3379C169.487 43.309 168.87 41.8686 168.87 40.0166C168.87 36.4156 171.326 34.3578 176.239 33.8434L179.094 33.5347C181.177 33.3032 182.219 32.3901 182.219 30.7953C182.219 29.6893 181.872 28.8919 181.177 28.4032C180.509 27.9145 179.364 27.6701 177.744 27.6701C176.02 27.6701 174.773 27.9659 174.001 28.5575C173.255 29.1234 172.831 30.1394 172.728 31.6056H169.641C169.898 27.2071 172.599 25.0079 177.744 25.0079C182.734 25.0079 185.229 26.9371 185.229 30.7953V41.9072C185.229 42.5502 185.589 42.8718 186.309 42.8718ZM176.046 43.219C177.692 43.219 179.133 42.7174 180.367 41.7143C181.602 40.7368 182.219 39.335 182.219 37.5088V35.1552C181.653 35.5925 180.779 35.8754 179.596 36.004L176.702 36.3513C175.03 36.557 173.834 36.9429 173.114 37.5088C172.419 38.0746 172.072 38.8849 172.072 39.9395C172.072 40.9683 172.406 41.7786 173.075 42.3702C173.744 42.9361 174.734 43.219 176.046 43.219ZM198.114 25.4709V28.1717H194.024V41.0969C194.024 42.2287 194.783 42.7946 196.3 42.7946H198.114V45.3796C197.265 45.4568 196.532 45.4954 195.914 45.4954C192.596 45.4954 190.937 44.1193 190.937 41.367V28.1717H187.658V25.4709H190.937V19.8378H194.024V25.4709H198.114ZM210.713 25.1623C211.227 25.1623 211.574 25.1751 211.754 25.2008V28.1717H210.983C208.925 28.1717 207.317 28.6862 206.16 29.715C205.028 30.7182 204.462 32.1586 204.462 34.0363V45.3796H201.376V25.4709H204.308V28.982C205.645 26.4355 207.78 25.1623 210.713 25.1623ZM217.802 22.4615H214.523V18.6804H217.802V22.4615ZM217.725 45.3796H214.638V25.4709H217.725V45.3796ZM238.229 25.4709L231.014 35.1938L238.615 45.3796H234.988L233.908 43.8749C232.03 41.1998 230.474 39.0392 229.239 37.393C227.387 39.888 225.805 42.0615 224.494 43.9135L223.452 45.3796H219.864L227.464 35.1938L220.249 25.4709H223.876L225.42 27.593C227.143 29.9079 228.429 31.7085 229.278 32.9946C231.233 30.2423 232.519 28.4418 233.136 27.593L234.641 25.4709H238.229ZM244.068 45.3796H240.171V41.5214H244.068V45.3796Z" fill="black"/>
</svg>
